<?xml version="1.0" encoding="UTF-8"?>
<svg width="500" height="500" viewBox="0 0 500 500" fill="none"
    xmlns="http://www.w3.org/2000/svg">
    <rect width="500" height="500" fill="#F4F7FB"/>
    <path d="M0 0 L500 0 L500 500 L0 500 Z" fill="none" stroke="#E2E8F0" stroke-width="0.5"/>
    <path d="M0 50 L500 50" stroke="#E2E8F0" stroke-width="0.5"/>
    <path d="M0 100 L500 100" stroke="#E2E8F0" stroke-width="0.5"/>
    <path d="M0 150 L500 150" stroke="#E2E8F0" stroke-width="0.5"/>
    <path d="M0 200 L500 200" stroke="#E2E8F0" stroke-width="0.5"/>
    <path d="M0 250 L500 250" stroke="#E2E8F0" stroke-width="0.5"/>
    <path d="M0 300 L500 300" stroke="#E2E8F0" stroke-width="0.5"/>
    <path d="M0 350 L500 350" stroke="#E2E8F0" stroke-width="0.5"/>
    <path d="M0 400 L500 400" stroke="#E2E8F0" stroke-width="0.5"/>
    <path d="M0 450 L500 450" stroke="#E2E8F0" stroke-width="0.5"/>
    <path d="M50 0 L50 500" stroke="#E2E8F0" stroke-width="0.5"/>
    <path d="M100 0 L100 500" stroke="#E2E8F0" stroke-width="0.5"/>
    <path d="M150 0 L150 500" stroke="#E2E8F0" stroke-width="0.5"/>
    <path d="M200 0 L200 500" stroke="#E2E8F0" stroke-width="0.5"/>
    <path d="M250 0 L250 500" stroke="#E2E8F0" stroke-width="0.5"/>
    <path d="M300 0 L300 500" stroke="#E2E8F0" stroke-width="0.5"/>
    <path d="M350 0 L350 500" stroke="#E2E8F0" stroke-width="0.5"/>
    <path d="M400 0 L400 500" stroke="#E2E8F0" stroke-width="0.5"/>
    <path d="M450 0 L450 500" stroke="#E2E8F0" stroke-width="0.5"/>
</svg>
