<?xml version="1.0" encoding="UTF-8"?>
<svg width="240" height="60" viewBox="0 0 240 60" fill="none"
    xmlns="http://www.w3.org/2000/svg">
    <!-- Wizard hat icon -->
    <path d="M35 10C34.3 23.6 28.4 31.5 22.6 37.5C16.8 43.5 5 45.4 5 62.2C5 79 35 79 35 79C35 79 65 79 65 62.2C65 45.4 53.2 43.5 47.4 37.5C41.6 31.5 35.7 23.6 35 10Z" fill="#6A57D1"/>
    <circle cx="35" cy="46" r="4" fill="#B0A7EC"/>
    <!-- Text TDG Connect -->
    <path d="M80 20H105V25H95V50H90V25H80V20Z" fill="#2F78C2"/>
    <path d="M110 20H130C135 20 140 25 140 30V40C140 45 135 50 130 50H110V20ZM115 25V45H130C132.5 45 135 42.5 135 40V30C135 27.5 132.5 25 130 25H115Z" fill="#2F78C2"/>
    <path d="M145 20H165C170 20 175 25 175 30V40C175 45 170 50 165 50H145V20ZM150 25V45H165C167.5 45 170 42.5 170 40V30C170 27.5 167.5 25 165 25H150Z" fill="#2F78C2"/>
    <path d="M180 20H210C215 20 220 25 220 30V40C220 45 215 50 210 50H195L190 55V50H180V20ZM185 25V45H195V50L200 45H210C212.5 45 215 42.5 215 40V30C215 27.5 212.5 25 210 25H185Z" fill="#2F78C2"/>
    <path d="M225 20H235L240 25V45L235 50H225V20ZM230 25V45H235L235 25H230Z" fill="#2F78C2"/>
    <path d="M245 20H265C270 20 275 25 275 30V40C275 45 270 50 265 50H245V20ZM250 25V45H265C267.5 45 270 42.5 270 40V30C270 27.5 267.5 25 265 25H250Z" fill="#2F78C2"/>
    <path d="M280 20H310V25H285V30H305V35H285V45H310V50H280V20Z" fill="#2F78C2"/>
</svg>
